<?xml version="1.0" standalone="no"?>
<!DOCTYPE svg PUBLIC "-//W3C//DTD SVG 20010904//EN"
 "http://www.w3.org/TR/2001/REC-SVG-20010904/DTD/svg10.dtd">
<svg version="1.0" xmlns="http://www.w3.org/2000/svg"
 width="432.000000pt" height="440.000000pt" viewBox="0 0 432.000000 440.000000"
 preserveAspectRatio="xMidYMid meet">

<g transform="translate(0.000000,440.000000) scale(0.100000,-0.100000)"
fill="#000000" stroke="none">
<path d="M2020 4394 c-640 -76 -1143 -337 -1514 -789 -107 -129 -130 -164
-232 -347 -100 -181 -153 -313 -198 -491 -55 -216 -70 -345 -70 -572 1 -281
30 -463 117 -724 145 -441 473 -869 856 -1116 197 -127 472 -246 684 -294 250
-57 592 -73 804 -38 362 61 658 182 948 388 233 166 463 417 604 663 178 307
261 589 292 981 29 386 -41 751 -215 1120 -100 211 -230 391 -420 581 -340
339 -770 556 -1227 618 -108 15 -369 27 -429 20z m310 -160 c512 -59 867 -228
1230 -585 279 -274 452 -579 549 -967 40 -159 51 -264 51 -482 0 -233 -10
-322 -59 -513 -101 -396 -271 -690 -563 -973 -277 -269 -620 -445 -1023 -525
-153 -30 -452 -37 -620 -15 -412 54 -799 240 -1099 526 -331 316 -558 750
-617 1180 -20 145 -18 530 4 655 41 234 97 405 194 597 107 211 232 377 415
553 313 302 708 486 1173 549 136 19 207 19 365 0z"/>
<path d="M1481 3843 c95 -98 131 -148 179 -243 52 -103 71 -168 77 -267 7
-107 14 -124 40 -101 29 26 113 64 192 88 l73 22 -34 35 c-18 20 -57 51 -86
70 -44 28 -58 46 -91 111 -49 97 -109 179 -193 263 -74 74 -138 109 -199 109
l-42 0 84 -87z"/>
<path d="M2802 3910 c-91 -41 -238 -212 -306 -355 -27 -57 -44 -80 -68 -93
-18 -9 -57 -40 -86 -68 l-55 -50 79 -28 c44 -15 112 -45 152 -66 l72 -37 0 81
c0 186 108 419 259 559 31 28 60 58 64 65 13 19 -61 15 -111 -8z"/>
<path d="M2918 3777 c-35 -30 -114 -139 -148 -207 -29 -58 -70 -173 -70 -198
0 -8 26 9 58 39 59 55 108 87 117 77 13 -12 -100 -247 -126 -264 -5 -3 25 -23
68 -43 43 -21 108 -57 146 -80 37 -22 72 -41 77 -41 17 0 28 44 35 141 9 115
-7 247 -46 385 -25 89 -72 214 -81 214 -2 0 -15 -10 -30 -23z"/>
<path d="M1376 3783 c-12 -12 -34 -67 -73 -178 -35 -99 -35 -101 -40 -316 -4
-149 -2 -218 5 -223 6 -3 78 28 160 71 l150 77 -59 113 c-32 62 -59 125 -59
139 l0 26 28 -18 c15 -9 48 -35 75 -57 26 -22 50 -37 53 -34 24 24 -74 232
-159 336 -53 66 -67 77 -81 64z"/>
<path d="M2057 3523 c-13 -12 -7 -22 38 -73 24 -27 50 -60 56 -72 l12 -22 16
24 c9 14 38 48 64 77 27 29 46 57 42 62 -7 12 -217 16 -228 4z"/>
<path d="M1342 2950 c-231 -113 -335 -180 -434 -282 -43 -45 -78 -84 -78 -89
0 -4 17 -3 38 3 321 85 477 175 613 353 38 50 65 105 51 105 -4 0 -89 -40
-190 -90z"/>
<path d="M2790 3025 c0 -24 138 -191 197 -239 90 -72 240 -141 377 -176 66
-16 122 -27 125 -24 8 7 -77 90 -167 164 -60 48 -137 94 -270 163 -230 117
-262 131 -262 112z"/>
<path d="M1638 2806 c-55 -21 -116 -66 -174 -128 -59 -62 -79 -96 -108 -188
-23 -70 -18 -67 -126 -90 -71 -16 -181 -66 -257 -118 -197 -134 -291 -364
-239 -585 20 -85 31 -90 51 -20 28 98 92 208 169 290 68 74 177 163 198 163
12 0 7 -35 -21 -136 -23 -83 -38 -234 -24 -234 5 0 25 16 44 36 37 39 119 94
138 94 8 0 4 -11 -9 -30 -12 -16 -37 -63 -56 -104 -111 -241 -76 -473 96 -647
62 -62 155 -127 166 -116 3 3 -11 38 -32 78 -76 152 -87 193 -88 319 -1 160
13 180 43 60 46 -186 125 -336 298 -557 50 -65 133 -163 183 -218 51 -55 133
-148 182 -207 50 -60 91 -108 93 -108 1 0 42 48 91 107 49 59 131 155 183 213
209 235 330 402 401 553 51 108 90 227 90 272 0 42 20 44 31 4 13 -45 9 -170
-7 -242 -16 -73 -64 -185 -104 -244 -52 -78 63 -9 163 97 122 129 163 251 146
436 -9 99 -26 152 -84 257 -21 38 -35 70 -32 73 7 7 88 -48 139 -94 21 -19 41
-33 43 -30 11 11 -17 202 -41 280 -13 45 -24 83 -24 85 0 25 123 -59 197 -135
66 -68 137 -181 173 -275 18 -45 35 -86 40 -90 14 -16 32 89 31 188 -1 170
-40 269 -148 381 -32 32 -85 77 -118 99 -71 47 -202 102 -265 111 -66 10 -75
17 -100 86 -49 138 -140 246 -248 296 -49 23 -70 27 -152 27 -80 -1 -102 -4
-140 -24 -91 -48 -178 -163 -231 -306 -35 -96 -38 -96 -73 -2 -57 149 -132
250 -226 301 -44 24 -67 29 -139 32 -59 3 -98 -1 -123 -10z m167 -242 c56 -29
101 -92 115 -161 13 -60 7 -200 -9 -216 -4 -4 -23 25 -40 65 -40 89 -56 108
-91 108 -39 0 -74 32 -94 84 -19 49 -39 60 -127 72 -27 4 -49 10 -49 15 0 5 1
9 3 9 1 0 29 11 62 25 74 32 168 31 230 -1z m959 -2 c59 -27 53 -40 -25 -49
-70 -8 -89 -18 -89 -48 0 -38 -55 -94 -101 -101 -48 -8 -60 -22 -93 -111 -15
-40 -32 -73 -36 -73 -31 0 -24 224 8 287 24 47 75 91 124 110 49 19 154 11
212 -15z m-454 -670 c100 -73 69 -237 -58 -305 -58 -32 -66 -54 -30 -87 23
-21 105 -50 144 -50 43 0 132 40 177 80 25 22 56 62 69 88 21 42 23 59 21 167
l-2 120 29 -34 c54 -63 73 -118 78 -218 4 -75 0 -105 -18 -165 -50 -164 -125
-282 -350 -543 -47 -55 -112 -133 -144 -172 -32 -40 -62 -70 -68 -67 -5 3 -36
40 -69 82 -34 43 -108 132 -167 200 -257 296 -332 445 -332 661 0 105 13 145
72 214 l33 38 0 -123 c0 -141 12 -176 84 -241 89 -80 179 -103 273 -67 33 12
59 29 63 39 8 25 -11 71 -29 71 -24 0 -85 59 -108 104 -44 85 -18 172 62 214
41 22 54 23 145 18 75 -4 106 -10 125 -24z"/>
<path d="M1906 1329 c17 -33 79 -82 139 -110 50 -23 161 -25 231 -4 56 16 127
72 150 117 15 29 15 30 -2 22 -28 -12 -436 -17 -488 -6 l-45 9 15 -28z"/>
<path d="M1120 2545 c-82 -24 -132 -44 -190 -80 -63 -38 -161 -136 -142 -143
18 -6 182 65 237 103 42 29 159 137 145 134 -3 0 -25 -7 -50 -14z"/>
<path d="M3215 2499 c28 -28 69 -62 91 -75 35 -20 220 -104 231 -104 14 0 -5
30 -49 77 -55 58 -123 98 -226 132 -96 33 -103 28 -47 -30z"/>
<path d="M953 1805 c-55 -87 -68 -144 -68 -290 1 -95 6 -146 19 -190 18 -61
83 -195 95 -195 3 0 6 51 7 113 1 115 18 215 54 309 11 29 19 52 17 53 -1 0
-15 5 -32 11 -33 10 -35 18 -52 169 l-8 70 -32 -50z"/>
<path d="M3346 1834 c-3 -9 -6 -30 -6 -47 0 -65 -28 -151 -56 -175 -23 -20
-25 -26 -16 -48 25 -53 44 -166 50 -294 4 -81 11 -134 17 -133 17 2 72 122 96
207 42 149 25 336 -43 454 -16 28 -31 52 -33 52 -1 0 -6 -7 -9 -16z"/>
<path d="M3173 1139 c-52 -93 -127 -163 -320 -301 -169 -121 -284 -223 -314
-280 -14 -26 17 -23 109 8 101 35 180 75 270 137 93 64 161 140 211 237 39 75
86 220 79 242 -2 6 -18 -13 -35 -43z"/>
<path d="M1130 1143 c0 -45 28 -130 68 -208 64 -124 216 -257 377 -330 78 -36
205 -78 212 -71 22 22 -94 151 -204 227 -250 171 -354 260 -415 353 -36 55
-38 57 -38 29z"/>
</g>
</svg>
